<mxfile host="Electron" modified="2023-06-16T09:54:28.462Z" agent="Mozilla/5.0 (Windows NT 10.0; Win64; x64) AppleWebKit/537.36 (KHTML, like Gecko) draw.io/21.2.8 Chrome/112.0.5615.165 Electron/24.2.0 Safari/537.36" etag="L_OG3meVwcmssQP8aVVD" version="21.2.8" type="device">
  <diagram name="Seite-1" id="Ti6-TNsFTT7Tpe_ESnYV">
    <mxGraphModel dx="1925" dy="2357" grid="1" gridSize="10" guides="1" tooltips="1" connect="1" arrows="1" fold="1" page="1" pageScale="1" pageWidth="827" pageHeight="1169" math="0" shadow="0">
      <root>
        <mxCell id="0" />
        <mxCell id="1" parent="0" />
        <mxCell id="wgbistW1kTDEsuP-9LzQ-1" value="Emails an Kunde &lt;br&gt;versenden" style="edgeStyle=orthogonalEdgeStyle;rounded=0;orthogonalLoop=1;jettySize=auto;html=1;" edge="1" parent="1" source="wgbistW1kTDEsuP-9LzQ-4" target="wgbistW1kTDEsuP-9LzQ-5">
          <mxGeometry relative="1" as="geometry" />
        </mxCell>
        <mxCell id="wgbistW1kTDEsuP-9LzQ-2" value="Wechselkurs&lt;br&gt;von Euro zu&lt;br&gt;BTC,USD, SAR&lt;br&gt;abfragen" style="edgeStyle=orthogonalEdgeStyle;rounded=0;orthogonalLoop=1;jettySize=auto;html=1;" edge="1" parent="1" source="wgbistW1kTDEsuP-9LzQ-4" target="wgbistW1kTDEsuP-9LzQ-7">
          <mxGeometry relative="1" as="geometry" />
        </mxCell>
        <mxCell id="wgbistW1kTDEsuP-9LzQ-3" value="ZufÃ¤llige Fakten&lt;br&gt;zu Katzen" style="edgeStyle=orthogonalEdgeStyle;rounded=0;orthogonalLoop=1;jettySize=auto;html=1;" edge="1" parent="1" source="wgbistW1kTDEsuP-9LzQ-4" target="wgbistW1kTDEsuP-9LzQ-6">
          <mxGeometry relative="1" as="geometry" />
        </mxCell>
        <mxCell id="wgbistW1kTDEsuP-9LzQ-4" value="&amp;lt;&amp;lt;System&amp;gt;&amp;gt;&lt;br&gt;MeowMed &lt;br&gt;System" style="rounded=0;whiteSpace=wrap;html=1;" vertex="1" parent="1">
          <mxGeometry x="240" y="110" width="120" height="60" as="geometry" />
        </mxCell>
        <mxCell id="wgbistW1kTDEsuP-9LzQ-5" value="&amp;lt;&amp;lt;External&amp;gt;&amp;gt;&lt;br&gt;Google Mail" style="rounded=0;whiteSpace=wrap;html=1;" vertex="1" parent="1">
          <mxGeometry x="505" y="110" width="120" height="60" as="geometry" />
        </mxCell>
        <mxCell id="wgbistW1kTDEsuP-9LzQ-6" value="&amp;lt;&amp;lt;External&amp;gt;&amp;gt;&lt;br&gt;Cat Facts API" style="rounded=0;whiteSpace=wrap;html=1;" vertex="1" parent="1">
          <mxGeometry x="240" y="-50" width="120" height="60" as="geometry" />
        </mxCell>
        <mxCell id="wgbistW1kTDEsuP-9LzQ-7" value="&amp;lt;&amp;lt;External&amp;gt;&amp;gt;&lt;br&gt;Exchange Rate API" style="rounded=0;whiteSpace=wrap;html=1;" vertex="1" parent="1">
          <mxGeometry x="-50" y="110" width="120" height="60" as="geometry" />
        </mxCell>
        <mxCell id="wgbistW1kTDEsuP-9LzQ-8" value="" style="edgeStyle=orthogonalEdgeStyle;rounded=0;orthogonalLoop=1;jettySize=auto;html=1;" edge="1" parent="1" source="wgbistW1kTDEsuP-9LzQ-9" target="wgbistW1kTDEsuP-9LzQ-4">
          <mxGeometry relative="1" as="geometry" />
        </mxCell>
        <mxCell id="wgbistW1kTDEsuP-9LzQ-9" value="Sachbearbeiter" style="shape=umlActor;verticalLabelPosition=bottom;verticalAlign=top;html=1;outlineConnect=0;" vertex="1" parent="1">
          <mxGeometry x="285" y="230" width="30" height="60" as="geometry" />
        </mxCell>
      </root>
    </mxGraphModel>
  </diagram>
</mxfile>
